name kv05_filtered_grf.mot
datacolumns 37
datarows 5
range 0.359000 0.361000
endheader
time	1_ground_force_vx	1_ground_force_vy	1_ground_force_vz	1_ground_force_px	1_ground_force_py	1_ground_force_pz	1_ground_torque_x	1_ground_torque_y	1_ground_torque_z	2_ground_force_vx	2_ground_force_vy	2_ground_force_vz	2_ground_force_px	2_ground_force_py	2_ground_force_pz	2_ground_torque_x	2_ground_torque_y	2_ground_torque_z	3_ground_force_vx	3_ground_force_vy	3_ground_force_vz	3_ground_force_px	3_ground_force_py	3_ground_force_pz	3_ground_torque_x	3_ground_torque_y	3_ground_torque_z	4_ground_force_vx	4_ground_force_vy	4_ground_force_vz	4_ground_force_px	4_ground_force_py	4_ground_force_pz	4_ground_torque_x	4_ground_torque_y	4_ground_torque_z
            0.359000	            0.000000	           -0.000002	            0.000000	            0.130560	            0.000000	            0.250779	           -0.000001	           -0.000000	            0.000001	           -0.000003	           -0.000003	            0.000011	           -0.241881	            0.000000	            0.344507	            0.000001	           -0.000000	            0.000000	            0.955020	           50.868056	          -29.491608	            0.386126	            0.970129	            1.074413	            1.257015	            1.662821	            5.091100	            2.737296	           12.671124	          -20.767225	           -0.369186	            0.969397	            1.107962	            0.146046	           -1.542334	           -1.703824
            0.359500	            0.000000	           -0.000002	            0.000000	            0.130560	            0.000000	            0.250779	           -0.000001	           -0.000000	            0.000001	           -0.000003	           -0.000003	            0.000011	           -0.241881	            0.000000	            0.344507	            0.000001	           -0.000000	            0.000000	            0.846456	           49.233644	          -29.088044	            0.386129	            0.970149	            1.074405	            1.234664	            1.657279	            4.947192	            2.633185	           11.873808	          -20.219167	           -0.369190	            0.969422	            1.107954	            0.134217	           -1.511973	           -1.622187
            0.360000	            0.000000	           -0.000002	            0.000000	            0.130560	            0.000000	            0.250779	           -0.000001	           -0.000000	            0.000001	           -0.000002	           -0.000003	            0.000011	           -0.241881	            0.000000	            0.344507	            0.000001	           -0.000000	            0.000000	            0.745825	           47.616399	          -28.684352	            0.386132	            0.970169	            1.074396	            1.211647	            1.651147	            4.804113	            2.530391	           11.106469	          -19.664657	           -0.369194	            0.969447	            1.107946	            0.123082	           -1.480388	           -1.542883
            0.360500	            0.000000	           -0.000002	            0.000000	            0.130560	            0.000000	            0.250779	           -0.000001	           -0.000000	            0.000001	           -0.000002	           -0.000003	            0.000010	           -0.241881	            0.000000	            0.344507	            0.000001	           -0.000000	            0.000000	            0.652313	           46.016614	          -28.280995	            0.386136	            0.970187	            1.074387	            1.188094	            1.644475	            4.661905	            2.429020	           10.368738	          -19.104468	           -0.369198	            0.969470	            1.107939	            0.112625	           -1.447653	           -1.465899
            0.361000	            0.000000	           -0.000002	            0.000000	            0.130560	            0.000000	            0.250779	           -0.000001	           -0.000000	            0.000001	           -0.000002	           -0.000003	            0.000010	           -0.241881	            0.000000	            0.344507	            0.000001	           -0.000000	            0.000000	            0.566328	           44.435411	          -27.877027	            0.386141	            0.970206	            1.074377	            1.163922	            1.637175	            4.520707	            2.329142	            9.660186	          -18.539416	           -0.369201	            0.969492	            1.107933	            0.102825	           -1.413847	           -1.391221
